M48
; DRILL file {KiCad 9.0.3} date 2025-08-14T18:04:13+0900
; FORMAT={-:-/ absolute / metric / decimal}
; #@! TF.CreationDate,2025-08-14T18:04:13+09:00
; #@! TF.GenerationSoftware,Kicad,Pcbnew,9.0.3
; #@! TF.FileFunction,Plated,1,2,PTH
FMAT,2
METRIC
; #@! TA.AperFunction,Plated,PTH,ViaDrill
T1C0.300
; #@! TA.AperFunction,Plated,PTH,ComponentDrill
T2C0.762
; #@! TA.AperFunction,Plated,PTH,ComponentDrill
T3C0.800
; #@! TA.AperFunction,Plated,PTH,ComponentDrill
T4C0.900
; #@! TA.AperFunction,Plated,PTH,ComponentDrill
T5C0.950
%
G90
G05
T1
X117.693Y-43.602
X117.75Y-40.39
X117.826Y-38.714
X118.5Y-135.34
X120.15Y-40.79
X120.5Y-133.34
X120.888Y-73.628
X120.95Y-45.99
X120.95Y-48.29
X120.95Y-75.49
X120.95Y-81.49
X120.95Y-85.19
X120.95Y-89.29
X120.95Y-100.19
X123.05Y-88.89
X123.05Y-91.19
X123.05Y-100.49
X123.05Y-103.39
X126.114Y-95.143
X127.799Y-96.023
X131.936Y-101.695
X137.497Y-48.438
X142.728Y-134.364
X149.641Y-140.879
X155.261Y-138.426
X158.25Y-136.39
T2
X118.11Y-69.635
X118.11Y-72.175
X118.11Y-74.715
X118.11Y-77.255
X118.11Y-79.795
X118.11Y-82.335
X118.11Y-84.875
X118.11Y-87.415
X118.11Y-89.955
X118.11Y-92.495
X118.11Y-95.035
X118.11Y-97.575
X118.11Y-100.115
X118.11Y-102.655
X118.11Y-105.195
X118.11Y-107.735
X127.31Y-66.69
X127.31Y-110.69
X129.85Y-66.69
X129.85Y-110.69
X132.39Y-66.69
X132.39Y-110.69
X133.35Y-79.795
X133.35Y-82.335
X133.35Y-84.875
X133.35Y-87.415
X133.35Y-89.955
X133.35Y-92.495
X133.35Y-95.035
X133.35Y-97.575
T3
X66.04Y-82.19
X66.04Y-95.19
X68.385Y-70.338
X68.436Y-107.165
X73.36Y-58.327
X73.41Y-119.176
X73.66Y-82.19
X73.66Y-95.19
X75.45Y-73.192
X75.45Y-104.188
X80.133Y-48.166
X80.133Y-129.214
X80.425Y-61.182
X80.425Y-116.198
X85.522Y-53.554
X85.522Y-123.826
X89.326Y-38.973
X89.326Y-138.407
X94.714Y-44.361
X94.714Y-133.018
X99.364Y-32.25
X99.487Y-145.18
X102.342Y-39.265
X102.342Y-138.115
X111.375Y-27.276
X111.498Y-150.155
X114.352Y-34.29
X114.352Y-143.09
X123.25Y-24.88
X123.25Y-32.5
X123.35Y-144.88
X123.35Y-152.5
X136.35Y-144.88
X136.35Y-152.5
X136.45Y-24.88
X136.45Y-32.5
X145.252Y-34.271
X145.348Y-143.09
X148.106Y-27.205
X148.325Y-150.104
X157.354Y-39.284
X157.358Y-138.115
X160.209Y-32.219
X160.336Y-145.13
X164.986Y-44.361
X164.986Y-133.018
X170.374Y-38.973
X170.374Y-138.407
X174.178Y-53.554
X174.178Y-123.826
X179.275Y-61.182
X179.275Y-116.198
X179.567Y-48.166
X179.567Y-129.214
X184.25Y-73.192
X184.25Y-104.188
X186.04Y-82.19
X186.04Y-95.19
X186.29Y-58.204
X186.34Y-119.053
X191.264Y-70.215
X191.315Y-107.042
X193.66Y-82.19
X193.66Y-95.19
T4
X69.85Y-84.92
X69.85Y-87.46
X69.85Y-89.92
X69.85Y-92.46
X72.954Y-108.177
X72.974Y-69.212
X73.926Y-66.857
X73.947Y-110.515
X74.867Y-112.796
X74.888Y-64.593
X75.839Y-62.238
X75.86Y-115.134
X84.758Y-48.929
X84.758Y-128.451
X86.554Y-47.133
X86.554Y-130.247
X88.293Y-45.394
X88.293Y-131.986
X90.089Y-43.598
X90.089Y-133.782
X103.398Y-142.701
X103.406Y-34.7
X105.744Y-33.707
X105.753Y-143.652
X108.017Y-144.614
X108.025Y-32.786
X110.363Y-31.794
X110.372Y-145.565
X126.06Y-28.69
X126.08Y-148.69
X128.6Y-28.69
X128.62Y-148.69
X131.08Y-28.69
X131.08Y-148.69
X133.62Y-28.69
X133.62Y-148.69
X149.306Y-31.826
X149.337Y-145.586
X151.661Y-32.778
X151.675Y-144.594
X153.944Y-33.747
X153.956Y-143.673
X156.294Y-142.68
X156.299Y-34.699
X169.611Y-43.598
X169.611Y-133.782
X171.407Y-45.394
X171.407Y-131.986
X173.146Y-47.133
X173.146Y-130.247
X174.942Y-48.929
X174.942Y-128.451
X183.84Y-62.246
X183.861Y-115.142
X184.812Y-112.787
X184.833Y-64.584
X185.754Y-66.865
X185.774Y-110.523
X186.725Y-108.168
X186.746Y-69.203
X189.85Y-84.92
X189.85Y-87.46
X189.85Y-89.92
X189.85Y-92.46
T5
X140.05Y-81.19
X140.05Y-83.69
X140.05Y-86.19
X140.05Y-88.69
X140.05Y-91.19
X140.05Y-93.69
X140.05Y-96.19
M30
