M48
; DRILL file {KiCad 9.0.5} date 2025-10-26T09:55:44+0900
; FORMAT={-:-/ absolute / metric / decimal}
; #@! TF.CreationDate,2025-10-26T09:55:44+09:00
; #@! TF.GenerationSoftware,Kicad,Pcbnew,9.0.5
; #@! TF.FileFunction,Plated,1,2,PTH
FMAT,2
METRIC
; #@! TA.AperFunction,Plated,PTH,ComponentDrill
T1C0.762
; #@! TA.AperFunction,Plated,PTH,ComponentDrill
T2C0.900
; #@! TA.AperFunction,Plated,PTH,ComponentDrill
T3C0.950
%
G90
G05
T1
X80.93Y-125.62
X83.47Y-125.62
X86.01Y-125.62
X88.55Y-125.62
X91.09Y-110.38
X91.09Y-125.62
X93.63Y-110.38
X93.63Y-125.62
X96.17Y-110.38
X96.17Y-125.62
X98.71Y-110.38
X98.71Y-125.62
X101.25Y-110.38
X101.25Y-125.62
X103.79Y-110.38
X103.79Y-125.62
X106.33Y-110.38
X106.33Y-125.62
X108.87Y-110.38
X108.87Y-125.62
X111.41Y-125.62
X113.95Y-125.62
X116.49Y-125.62
X119.03Y-125.62
T2
X57.525Y-97.46
X57.525Y-100.0
X57.525Y-102.54
X59.786Y-113.908
X59.804Y-86.099
X60.756Y-83.744
X60.779Y-116.246
X61.707Y-81.389
X61.771Y-118.584
X68.17Y-71.762
X68.17Y-128.238
X69.966Y-69.966
X69.966Y-130.034
X71.762Y-68.17
X71.762Y-131.83
X81.389Y-138.293
X81.406Y-61.748
X83.744Y-139.244
X83.745Y-60.756
X86.083Y-59.763
X86.099Y-140.196
X97.46Y-57.5
X97.46Y-142.5
X100.0Y-57.5
X100.0Y-142.5
X102.54Y-57.5
X102.54Y-142.5
X113.891Y-59.827
X113.908Y-140.214
X116.246Y-139.221
X116.246Y-60.779
X118.584Y-138.229
X118.601Y-61.73
X128.256Y-68.152
X128.256Y-131.848
X130.052Y-69.948
X130.052Y-130.052
X131.848Y-71.744
X131.848Y-128.256
X138.252Y-81.406
X138.293Y-118.611
X139.244Y-116.256
X139.244Y-83.745
X140.196Y-113.901
X140.237Y-86.083
X142.5Y-97.46
X142.5Y-100.0
X142.5Y-102.54
T3
X92.5Y-104.3
X95.0Y-104.3
X97.5Y-104.3
X100.0Y-104.3
X102.5Y-104.3
X105.0Y-104.3
X107.5Y-104.3
M30
