M48
; DRILL file {KiCad 9.0.3} date 2025-08-14T17:58:44+0900
; FORMAT={-:-/ absolute / metric / decimal}
; #@! TF.CreationDate,2025-08-14T17:58:44+09:00
; #@! TF.GenerationSoftware,Kicad,Pcbnew,9.0.3
; #@! TF.FileFunction,Plated,1,2,PTH
FMAT,2
METRIC
; #@! TA.AperFunction,Plated,PTH,ViaDrill
T1C0.300
; #@! TA.AperFunction,Plated,PTH,ComponentDrill
T2C0.762
; #@! TA.AperFunction,Plated,PTH,ComponentDrill
T3C0.800
; #@! TA.AperFunction,Plated,PTH,ComponentDrill
T4C0.864
; #@! TA.AperFunction,Plated,PTH,ComponentDrill
T5C0.950
; #@! TA.AperFunction,Plated,PTH,ComponentDrill
T6C1.000
%
G90
G05
T1
X119.5Y-86.7
T2
X128.38Y-69.38
X128.38Y-77.0
X130.92Y-69.38
X130.92Y-77.0
X133.46Y-69.38
X133.46Y-77.0
X136.0Y-69.38
X136.0Y-77.0
T3
X125.5Y-84.0
X125.5Y-94.0
X125.5Y-104.0
X128.0Y-84.0
X128.0Y-94.0
X128.0Y-104.0
X133.0Y-61.0
X135.5Y-84.0
X135.5Y-94.0
X135.5Y-104.0
X138.0Y-84.0
X138.0Y-94.0
X138.0Y-104.0
X138.388Y-66.388
X140.612Y-68.612
X146.0Y-74.0
T4
X115.04Y-59.16
X115.04Y-61.66
X117.54Y-59.16
X117.54Y-61.66
X120.04Y-59.16
X120.04Y-61.66
X122.54Y-59.16
X122.54Y-61.66
X125.04Y-59.16
X125.04Y-61.66
T5
X94.4Y-86.4
X94.4Y-88.9
X94.4Y-91.4
X94.4Y-93.9
X94.4Y-96.4
X94.4Y-98.9
X94.4Y-101.4
X145.6Y-79.0
X145.6Y-81.5
X145.6Y-84.0
X145.6Y-86.5
X145.6Y-89.0
X145.6Y-91.5
X145.6Y-94.0
X145.6Y-100.5
X145.6Y-103.0
T6
X101.76Y-72.52
X101.76Y-75.06
X101.76Y-77.6
X101.76Y-80.14
X101.76Y-82.68
X101.76Y-85.22
X101.76Y-87.76
X101.76Y-90.3
X101.76Y-92.84
X101.76Y-95.38
X101.76Y-97.92
X101.76Y-100.46
X101.76Y-103.0
X101.76Y-105.54
X101.76Y-108.08
X117.0Y-72.52
X117.0Y-75.06
X117.0Y-77.6
X117.0Y-80.14
X117.0Y-82.68
X117.0Y-85.22
X117.0Y-87.76
X117.0Y-90.3
X117.0Y-92.84
X117.0Y-95.38
X117.0Y-97.92
X117.0Y-100.46
X117.0Y-103.0
X117.0Y-105.54
X117.0Y-108.08
X125.42Y-112.5
X127.96Y-112.5
X130.5Y-112.5
M30
